<svg version="1.1" xmlns="http://www.w3.org/2000/svg" width="500" height="500"><path d="M0 0 C3.79036362 0.02148068 7.5788328 0.00002144 11.36914062 -0.02539062 C28.53447143 -0.04199795 44.88343041 1.62109831 61.79101562 4.52148438 C61.79101562 5.18148438 61.79101562 5.84148438 61.79101562 6.52148438 C62.40847656 6.55886719 63.0259375 6.59625 63.66210938 6.63476562 C68.86528732 7.03866528 73.42353839 7.85730253 78.32226562 9.64257812 C81.22004341 10.6742237 84.15261054 11.52877776 87.10351562 12.39648438 C97.37250122 15.54053933 107.05860614 20.01928707 116.79101562 24.52148438 C116.79101562 25.18148438 116.79101562 25.84148438 116.79101562 26.52148438 C117.47421875 26.60785156 118.15742188 26.69421875 118.86132812 26.78320312 C122.51049693 27.70279366 125.46661564 29.42197853 128.66601562 31.33398438 C129.25253906 31.67751953 129.8390625 32.02105469 130.44335938 32.375 C131.62420858 33.06664025 132.80358627 33.76079925 133.98144531 34.45751953 C136.90154079 36.17443482 139.84691493 37.84613296 142.79101562 39.52148438 C142.79101562 40.18148437 142.79101562 40.84148438 142.79101562 41.52148438 C143.87382813 41.89273438 143.87382813 41.89273438 144.97851562 42.27148438 C148.05014675 43.63665376 150.20149082 45.39674607 152.79101562 47.52148438 C153.90476562 48.07835938 153.90476562 48.07835938 155.04101562 48.64648438 C156.79101562 49.52148437 156.79101562 49.52148437 157.79101562 51.52148438 C158.63664062 52.01648437 159.48226563 52.51148438 160.35351562 53.02148438 C161.56007813 53.76398437 161.56007813 53.76398437 162.79101562 54.52148438 C162.79101562 55.18148437 162.79101562 55.84148438 162.79101562 56.52148438 C163.47164063 56.72773437 164.15226562 56.93398438 164.85351562 57.14648438 C173.39175614 61.14310759 179.76086212 69.44691989 185.87304688 76.38476562 C187.35811337 78.03920834 188.90647822 79.63694697 190.47851562 81.20898438 C197.79101562 88.52148437 197.79101562 88.52148437 197.79101562 91.52148438 C198.43039062 91.78960937 199.06976563 92.05773437 199.72851562 92.33398438 C201.79101562 93.52148437 201.79101562 93.52148437 202.79101562 96.52148438 C203.78101563 97.18148437 204.77101563 97.84148437 205.79101562 98.52148438 C206.83745628 100.15939149 207.83083393 101.83156459 208.79101562 103.52148438 C209.51289063 104.57335937 210.23476563 105.62523438 210.97851562 106.70898438 C212.79101562 109.52148438 212.79101562 109.52148438 212.79101562 111.52148438 C213.45101563 111.52148438 214.11101562 111.52148438 214.79101562 111.52148438 C215.39429688 112.59527344 215.99757813 113.6690625 216.61914062 114.77539062 C217.42641936 116.21159581 218.23371175 117.64779332 219.04101562 119.08398438 C219.43675781 119.78845703 219.8325 120.49292969 220.24023438 121.21875 C220.63339844 121.91806641 221.0265625 122.61738281 221.43164062 123.33789062 C222.01848633 124.38614014 222.01848633 124.38614014 222.6171875 125.45556641 C223.38931735 126.81450209 224.17676149 128.1648692 224.98046875 129.50537109 C227.79101562 134.21563947 227.79101562 134.21563947 227.79101562 137.52148438 C228.45101563 137.52148438 229.11101562 137.52148438 229.79101562 137.52148438 C232.14946122 143.09489984 234.49888897 148.67201785 236.83837891 154.25341797 C237.56641764 155.98675468 238.30043483 157.7175815 239.03710938 159.44726562 C243.40725669 169.94649922 247.48795574 181.06031066 247.79101562 192.52148438 C248.45101563 192.52148438 249.11101562 192.52148438 249.79101562 192.52148438 C250.27385559 195.47925873 250.75235327 198.43763367 251.22851562 201.39648438 C251.36322266 202.21890625 251.49792969 203.04132813 251.63671875 203.88867188 C251.83491211 205.12617188 251.83491211 205.12617188 252.03710938 206.38867188 C252.15755615 207.1322998 252.27800293 207.87592773 252.40209961 208.64208984 C253.56171872 217.22749338 253.96189832 225.67954191 253.99414062 234.34179688 C253.9998407 235.55809784 254.00554077 236.7743988 254.01141357 238.02755737 C254.0208218 240.59762719 254.02738085 243.16770884 254.03125 245.73779297 C254.04086573 249.58649055 254.07189301 253.43463254 254.10351562 257.28320312 C254.17643823 274.57281809 253.27804639 291.54890544 249.79101562 308.52148438 C249.13101562 308.52148438 248.47101563 308.52148438 247.79101562 308.52148438 C247.75363281 309.13894531 247.71625 309.75640625 247.67773438 310.39257812 C247.27369269 315.59758568 246.45688431 320.15758158 244.66601562 325.05664062 C243.64574795 327.93069823 242.82282248 330.84103599 241.97851562 333.77148438 C240.20794235 339.58520581 237.87581191 344.94577994 235.25195312 350.41992188 C233.23095312 354.71049408 231.48958691 359.09520743 229.79101562 363.52148438 C229.13101562 363.52148438 228.47101563 363.52148438 227.79101562 363.52148438 C227.70464844 364.2046875 227.61828125 364.88789063 227.52929688 365.59179688 C226.60970634 369.24096568 224.89052147 372.19708439 222.97851562 375.39648438 C222.63498047 375.98300781 222.29144531 376.56953125 221.9375 377.17382812 C221.24585975 378.35467733 220.55170075 379.53405502 219.85498047 380.71191406 C218.13806518 383.63200954 216.46636704 386.57738368 214.79101562 389.52148438 C214.13101562 389.52148438 213.47101563 389.52148438 212.79101562 389.52148438 C212.54351562 390.24335938 212.29601562 390.96523438 212.04101562 391.70898438 C210.67584624 394.7806155 208.91575393 396.93195957 206.79101562 399.52148438 C206.41976563 400.26398438 206.04851562 401.00648438 205.66601562 401.77148438 C204.79101562 403.52148438 204.79101562 403.52148438 202.79101562 404.52148438 C202.29601562 405.36710937 201.80101562 406.21273438 201.29101562 407.08398438 C200.54851562 408.29054688 200.54851562 408.29054688 199.79101562 409.52148438 C199.13101562 409.52148438 198.47101563 409.52148438 197.79101562 409.52148438 C197.48164062 410.54242188 197.48164062 410.54242188 197.16601562 411.58398438 C193.16939241 420.12222489 184.86558011 426.49133087 177.92773438 432.60351562 C176.27329166 434.08858212 174.67555303 435.63694697 173.10351562 437.20898438 C170.44943814 439.86306186 167.75483834 442.21628893 164.79101562 444.52148438 C164.13101562 444.52148438 163.47101563 444.52148438 162.79101562 444.52148438 C162.52289063 445.16085937 162.25476563 445.80023438 161.97851562 446.45898438 C160.79101562 448.52148438 160.79101562 448.52148438 157.79101562 449.52148438 C157.13101562 450.51148438 156.47101563 451.50148438 155.79101562 452.52148438 C154.15310851 453.56792503 152.48093541 454.56130268 150.79101562 455.52148438 C149.73914063 456.24335938 148.68726563 456.96523438 147.60351562 457.70898438 C144.79101562 459.52148438 144.79101562 459.52148438 142.79101562 459.52148438 C142.79101562 460.18148438 142.79101562 460.84148437 142.79101562 461.52148438 C141.71722656 462.12476563 140.6434375 462.72804688 139.53710938 463.34960938 C138.10090419 464.15688811 136.66470668 464.9641805 135.22851562 465.77148438 C134.17180664 466.36509766 134.17180664 466.36509766 133.09375 466.97070312 C132.39443359 467.36386719 131.69511719 467.75703125 130.97460938 468.16210938 C130.27577637 468.55333984 129.57694336 468.94457031 128.85693359 469.34765625 C127.49799791 470.1197861 126.1476308 470.90723024 124.80712891 471.7109375 C120.09686053 474.52148438 120.09686053 474.52148438 116.79101562 474.52148438 C116.79101562 475.18148438 116.79101562 475.84148437 116.79101562 476.52148438 C80.14754369 494.03609541 80.14754369 494.03609541 61.79101562 494.52148438 C61.79101562 495.18148438 61.79101562 495.84148437 61.79101562 496.52148438 C43.59421796 499.64302643 26.05545724 501.16682359 7.58203125 501.04296875 C3.79166763 501.02148807 0.00319845 501.04294731 -3.78710938 501.06835938 C-20.95244018 501.0849667 -37.30139916 499.42187044 -54.20898438 496.52148438 C-54.20898438 495.86148437 -54.20898438 495.20148438 -54.20898438 494.52148438 C-54.82644531 494.48410156 -55.44390625 494.44671875 -56.08007812 494.40820312 C-61.28325607 494.00430347 -65.84150714 493.18566622 -70.74023438 491.40039062 C-73.63801216 490.36874505 -76.57057929 489.51419099 -79.52148438 488.64648438 C-89.79046997 485.50242942 -99.47657489 481.02368168 -109.20898438 476.52148438 C-109.20898438 475.86148437 -109.20898438 475.20148438 -109.20898438 474.52148438 C-110.23378906 474.39193359 -110.23378906 474.39193359 -111.27929688 474.25976562 C-114.92846568 473.34017509 -117.88458439 471.62099022 -121.08398438 469.70898438 C-121.67050781 469.36544922 -122.25703125 469.02191406 -122.86132812 468.66796875 C-124.04217733 467.9763285 -125.22155502 467.2821695 -126.39941406 466.58544922 C-129.31950954 464.86853393 -132.26488368 463.19683579 -135.20898438 461.52148438 C-135.20898438 460.86148437 -135.20898438 460.20148438 -135.20898438 459.52148438 C-136.29179687 459.15023437 -136.29179687 459.15023437 -137.39648438 458.77148438 C-140.4681155 457.40631499 -142.61945957 455.64622268 -145.20898438 453.52148438 C-145.95148438 453.15023438 -146.69398438 452.77898437 -147.45898438 452.39648438 C-149.20898438 451.52148438 -149.20898438 451.52148438 -150.20898438 449.52148438 C-151.47742188 448.77898437 -151.47742188 448.77898437 -152.77148438 448.02148438 C-153.57585937 447.52648437 -154.38023437 447.03148437 -155.20898438 446.52148438 C-155.20898438 445.86148437 -155.20898438 445.20148438 -155.20898438 444.52148438 C-156.22992188 444.21210937 -156.22992188 444.21210937 -157.27148438 443.89648438 C-165.80972489 439.89986116 -172.17883087 431.59604886 -178.29101562 424.65820312 C-179.77608212 423.00376041 -181.32444697 421.40602178 -182.89648438 419.83398438 C-185.55056186 417.17990689 -187.90378893 414.48530709 -190.20898438 411.52148438 C-190.20898438 410.86148437 -190.20898438 410.20148438 -190.20898438 409.52148438 C-190.84835938 409.25335938 -191.48773438 408.98523438 -192.14648438 408.70898438 C-194.20898438 407.52148438 -194.20898438 407.52148438 -195.20898438 404.52148438 C-196.19898438 403.86148437 -197.18898437 403.20148438 -198.20898438 402.52148438 C-199.25542503 400.88357726 -200.24880268 399.21140416 -201.20898438 397.52148438 C-202.29179687 395.94367188 -202.29179687 395.94367188 -203.39648438 394.33398438 C-205.20898438 391.52148438 -205.20898438 391.52148438 -205.20898438 389.52148438 C-205.86898437 389.52148438 -206.52898437 389.52148438 -207.20898438 389.52148438 C-207.81226563 388.44769531 -208.41554687 387.37390625 -209.03710938 386.26757812 C-209.84438811 384.83137294 -210.6516805 383.39517543 -211.45898438 381.95898438 C-211.85472656 381.25451172 -212.25046875 380.55003906 -212.65820312 379.82421875 C-213.05136719 379.12490234 -213.44453125 378.42558594 -213.84960938 377.70507812 C-214.24083984 377.00624512 -214.63207031 376.30741211 -215.03515625 375.58740234 C-215.8072861 374.22846666 -216.59473024 372.87809955 -217.3984375 371.53759766 C-220.20898438 366.82732928 -220.20898438 366.82732928 -220.20898438 363.52148438 C-220.86898437 363.52148438 -221.52898437 363.52148438 -222.20898438 363.52148438 C-224.56742997 357.94806891 -226.91685772 352.3709509 -229.25634766 346.78955078 C-229.98438639 345.05621407 -230.71840358 343.32538725 -231.45507812 341.59570312 C-235.82522544 331.09646953 -239.90592449 319.98265809 -240.20898438 308.52148438 C-240.86898437 308.52148438 -241.52898437 308.52148438 -242.20898438 308.52148438 C-242.69182434 305.56371002 -243.17032202 302.60533508 -243.64648438 299.64648438 C-243.78119141 298.8240625 -243.91589844 298.00164062 -244.0546875 297.15429688 C-244.18681641 296.32929688 -244.31894531 295.50429688 -244.45507812 294.65429688 C-244.5755249 293.91066895 -244.69597168 293.16704102 -244.82006836 292.40087891 C-245.97968747 283.81547537 -246.37986707 275.36342684 -246.41210938 266.70117188 C-246.41780945 265.48487091 -246.42350952 264.26856995 -246.42938232 263.01541138 C-246.43879055 260.44534156 -246.4453496 257.87525991 -246.44921875 255.30517578 C-246.45883448 251.4564782 -246.48986176 247.60833621 -246.52148438 243.75976562 C-246.59440698 226.47015066 -245.69601514 209.49406331 -242.20898438 192.52148438 C-241.54898438 192.52148438 -240.88898438 192.52148438 -240.20898438 192.52148438 C-240.17160156 191.90402344 -240.13421875 191.2865625 -240.09570312 190.65039062 C-239.69166144 185.44538307 -238.87485306 180.88538717 -237.08398438 175.98632812 C-236.0637167 173.11227052 -235.24079123 170.20193276 -234.39648438 167.27148438 C-232.6259111 161.45776294 -230.29378066 156.09718881 -227.66992188 150.62304688 C-225.64892187 146.33247467 -223.90755566 141.94776132 -222.20898438 137.52148438 C-221.54898438 137.52148438 -220.88898438 137.52148438 -220.20898438 137.52148438 C-220.12261719 136.83828125 -220.03625 136.15507812 -219.94726562 135.45117188 C-219.02767509 131.80200307 -217.30849022 128.84588436 -215.39648438 125.64648438 C-215.05294922 125.05996094 -214.70941406 124.4734375 -214.35546875 123.86914062 C-213.6638285 122.68829142 -212.9696695 121.50891373 -212.27294922 120.33105469 C-210.55603393 117.41095921 -208.88433579 114.46558507 -207.20898438 111.52148438 C-206.54898438 111.52148438 -205.88898438 111.52148438 -205.20898438 111.52148438 C-204.96148437 110.79960938 -204.71398437 110.07773438 -204.45898438 109.33398438 C-203.09381499 106.26235325 -201.33372268 104.11100918 -199.20898438 101.52148438 C-198.83773437 100.77898437 -198.46648437 100.03648438 -198.08398438 99.27148438 C-197.20898438 97.52148438 -197.20898438 97.52148438 -195.20898438 96.52148438 C-194.71398437 95.67585938 -194.21898437 94.83023438 -193.70898438 93.95898438 C-193.21398437 93.15460938 -192.71898437 92.35023437 -192.20898438 91.52148438 C-191.54898438 91.52148438 -190.88898438 91.52148438 -190.20898438 91.52148438 C-190.00273437 90.84085937 -189.79648438 90.16023438 -189.58398438 89.45898438 C-185.58736116 80.92074386 -177.28354886 74.55163788 -170.34570312 68.43945312 C-168.69126041 66.95438663 -167.09352178 65.40602178 -165.52148438 63.83398438 C-162.86740689 61.17990689 -160.17280709 58.82667982 -157.20898438 56.52148438 C-156.54898438 56.52148438 -155.88898438 56.52148438 -155.20898438 56.52148438 C-154.94085938 55.88210937 -154.67273438 55.24273437 -154.39648438 54.58398438 C-153.20898438 52.52148438 -153.20898438 52.52148438 -150.20898438 51.52148438 C-149.54898438 50.53148437 -148.88898438 49.54148438 -148.20898438 48.52148438 C-146.57107726 47.47504372 -144.89890416 46.48166607 -143.20898438 45.52148438 C-142.15710938 44.79960938 -141.10523438 44.07773437 -140.02148438 43.33398438 C-137.20898438 41.52148438 -137.20898438 41.52148438 -135.20898438 41.52148438 C-135.20898438 40.86148438 -135.20898438 40.20148437 -135.20898438 39.52148438 C-134.13519531 38.91820312 -133.06140625 38.31492188 -131.95507812 37.69335938 C-130.51887294 36.88608064 -129.08267543 36.07878825 -127.64648438 35.27148438 C-126.94201172 34.87574219 -126.23753906 34.48 -125.51171875 34.07226562 C-124.81240234 33.67910156 -124.11308594 33.2859375 -123.39257812 32.88085938 C-122.69374512 32.48962891 -121.99491211 32.09839844 -121.27490234 31.6953125 C-119.91596666 30.92318265 -118.56559955 30.13573851 -117.22509766 29.33203125 C-112.51482928 26.52148438 -112.51482928 26.52148438 -109.20898438 26.52148438 C-109.20898438 25.86148437 -109.20898438 25.20148437 -109.20898438 24.52148438 C-72.56551244 7.00687334 -72.56551244 7.00687334 -54.20898438 6.52148438 C-54.20898438 5.86148437 -54.20898438 5.20148437 -54.20898438 4.52148438 C-36.01218671 1.39994232 -18.47342599 -0.12385484 0 0 Z " fill="#FBFD52" transform="translate(246.208984375,-0.521484375)"/><path d="M0 0 C82.5 0 165 0 250 0 C250 29.37 250 58.74 250 89 C236.47 89 222.94 89 209 89 C207.28798691 85.00530278 205.59104798 81.03881411 204 77 C203.34 77 202.68 77 202 77 C200.86536429 75.14332338 199.73276351 73.28537829 198.609375 71.421875 C194.09978203 64.63559432 188.42441332 58.87073758 181.7265625 54.25390625 C180 53 180 53 178.62109375 51.53515625 C176.4520812 49.4811275 174.07274338 48.27157372 171.4375 46.875 C170.46683594 46.35679687 169.49617187 45.83859375 168.49609375 45.3046875 C167.00355898 44.52455196 165.50632573 43.75316286 164 43 C164 42.34 164 41.68 164 41 C161.69 40.67 159.38 40.34 157 40 C157 39.34 157 38.68 157 38 C156.19175781 37.86722656 155.38351562 37.73445313 154.55078125 37.59765625 C153.48214844 37.42105469 152.41351563 37.24445313 151.3125 37.0625 C150.25675781 36.88847656 149.20101562 36.71445313 148.11328125 36.53515625 C146.30821112 36.22487443 144.50666072 35.88627448 142.72192383 35.47485352 C139.55017073 34.92152499 136.55592555 34.87031674 133.3359375 34.8671875 C131.40427734 34.86525391 131.40427734 34.86525391 129.43359375 34.86328125 C128.76569824 34.86537598 128.09780273 34.8674707 127.40966797 34.86962891 C125.40202411 34.87492866 123.39436094 34.8691803 121.38671875 34.86328125 C113.86711853 34.87076344 106.47233348 35.14149322 99 36 C99 36.66 99 37.32 99 38 C98.20078125 38.20753906 97.4015625 38.41507813 96.578125 38.62890625 C75.18487688 44.63006388 56.98464723 59.78443253 46 79 C45.62488281 79.60199219 45.24976563 80.20398438 44.86328125 80.82421875 C36.70118136 94.14812095 34.61134064 107.85035744 34.6875 123.25 C34.69241455 124.43078125 34.6973291 125.6115625 34.70239258 126.828125 C34.88176737 140.25087868 36.57264458 152.01189888 43 164 C43.50015625 164.9590625 44.0003125 165.918125 44.515625 166.90625 C48.39899605 174.20228046 52.56541746 180.84019987 58.1875 186.9375 C58.90280884 187.71637573 58.90280884 187.71637573 59.63256836 188.51098633 C64.1390194 193.31851653 69.0579839 198.02899195 75 201 C75 201.66 75 202.32 75 203 C76.2375 203.37125 76.2375 203.37125 77.5 203.75 C80.0994562 204.67837722 82.32236229 205.62170736 84.75 206.875 C97.86316619 213.5435551 109.771648 215.34170934 124.4375 215.25 C125.67048828 215.25773438 126.90347656 215.26546875 128.17382812 215.2734375 C138.66024518 215.2512792 148.62660487 214.7013452 158.0625 209.8046875 C160 209 160 209 164 209 C164 208.34 164 207.68 164 207 C165.7015625 206.195625 165.7015625 206.195625 167.4375 205.375 C182.64464661 197.67821301 195.730499 185.79094132 203.60546875 170.6484375 C204.975397 168.04672502 206.48720651 165.52132249 208 163 C221.86 163 235.72 163 250 163 C250 191.71 250 220.42 250 250 C167.5 250 85 250 0 250 C0 167.5 0 85 0 0 Z " fill="#030302" transform="translate(125,125)"/><path d="M0 0 C0.54749928 1.28059153 1.061187 2.57563268 1.5625 3.875 C1.99755859 4.95394531 1.99755859 4.95394531 2.44140625 6.0546875 C2.97296055 8.85742837 2.8912622 10.50727927 2.52514648 13.28588867 C1.8011558 19.99146022 1.99899476 26.63764585 2.15625 33.37109375 C2.18318584 34.74291162 2.20941707 36.11474348 2.23498535 37.48658752 C2.33053891 42.53229558 2.43874744 47.57771612 2.54681396 52.62316895 C2.63797617 56.90144355 2.72408709 61.17976461 2.80375671 65.45826912 C2.8426605 67.44057905 2.88881622 69.4227425 2.93518066 71.40489197 C3.22893096 86.87326783 3.22893096 86.87326783 2 93 C0 95 0 95 -1.83499146 95.24050903 C-2.57667572 95.23606781 -3.31835999 95.23162659 -4.08251953 95.22705078 C-4.92324005 95.22689972 -5.76396057 95.22674866 -6.63015747 95.22659302 C-7.53853363 95.21627045 -8.44690979 95.20594788 -9.3828125 95.1953125 C-10.77691849 95.19106766 -10.77691849 95.19106766 -12.19918823 95.18673706 C-15.1745885 95.17552069 -18.14969035 95.1504136 -21.125 95.125 C-23.13931858 95.11497208 -25.15364186 95.1058459 -27.16796875 95.09765625 C-32.11209456 95.07557661 -37.05599665 95.04103693 -42 95 C-42.33 94.34 -42.66 93.68 -43 93 C-29.14 93 -15.28 93 -1 93 C-1 63.63 -1 34.26 -1 4 C-83.5 4 -166 4 -251 4 C-251 86.5 -251 169 -251 254 C-168.5 254 -86 254 -1 254 C-1 254.66 -1 255.32 -1 256 C-32.78038346 256.17309061 -64.56079861 256.33589979 -96.34130625 256.48431293 C-100.09147016 256.50183507 -103.84163364 256.51944508 -107.59179688 256.53710938 C-108.33840133 256.54062461 -109.08500578 256.54413985 -109.85423461 256.5477616 C-121.95043606 256.60492374 -134.04658977 256.66920649 -146.14274082 256.736111 C-158.55026525 256.8045796 -170.9578101 256.86541876 -183.36540723 256.91914403 C-191.02438611 256.95254907 -198.68328658 256.99193742 -206.34219435 257.03892837 C-212.21050397 257.07429644 -218.0788279 257.0990605 -223.9472084 257.11981392 C-226.35793155 257.13001308 -228.7686428 257.14368765 -231.1793251 257.16103554 C-234.46226163 257.18414884 -237.74501151 257.194934 -241.02801514 257.20254517 C-241.98910084 257.2122618 -242.95018655 257.22197843 -243.94039607 257.2319895 C-244.81920916 257.2314908 -245.69802225 257.2309921 -246.60346603 257.23047829 C-247.7403487 257.23617409 -247.7403487 257.23617409 -248.9001987 257.24198496 C-251.29363994 256.96616039 -252.92066343 256.18789949 -255 255 C-254.94094143 222.93067597 -254.86666037 190.86143291 -254.77101372 158.79219855 C-254.75974504 155.00941525 -254.74860667 151.22663158 -254.73754883 147.44384766 C-254.73534514 146.69073735 -254.73314146 145.93762705 -254.730871 145.16169523 C-254.69546173 132.95425518 -254.67061812 120.7468152 -254.64965298 108.53934278 C-254.62791977 96.02101451 -254.59489312 83.50275311 -254.55129844 70.98448169 C-254.52473879 63.25490175 -254.50707526 55.52540518 -254.50065396 47.79578184 C-254.49479526 41.87692005 -254.47325311 35.958182 -254.44572449 30.03937912 C-254.43689212 27.60527107 -254.43323232 25.17113821 -254.43499184 22.73701477 C-254.43662984 19.42692087 -254.42007186 16.11741696 -254.39872742 12.80740356 C-254.40357499 11.83271028 -254.40842257 10.85801699 -254.41341704 9.85378754 C-254.4039605 8.97198976 -254.39450396 8.09019198 -254.38476086 7.18167305 C-254.38286225 6.4169163 -254.38096365 5.65215956 -254.37900752 4.86422837 C-254 3 -254 3 -251 1 C-249.0837481 0.75275367 -249.0837481 0.75275367 -246.87100601 0.75669765 C-246.02636803 0.75333226 -245.18173005 0.74996686 -244.31149697 0.74649948 C-242.91935279 0.75626118 -242.91935279 0.75626118 -241.49908447 0.76622009 C-240.0203185 0.76471517 -240.0203185 0.76471517 -238.51167846 0.76317984 C-235.19292771 0.76222372 -231.8743864 0.77559461 -228.55566406 0.78881836 C-226.1823737 0.79101857 -223.80908235 0.79232484 -221.43579102 0.7928009 C-215.6485636 0.79612306 -209.86140597 0.80854998 -204.07420138 0.82470124 C-197.33399776 0.842909 -190.59379999 0.84896803 -183.85357568 0.8540265 C-171.82391771 0.86328716 -159.79428692 0.88074779 -147.76464844 0.90405273 C-146.68435429 0.9061427 -146.68435429 0.9061427 -145.58223602 0.9082749 C-144.86115694 0.90967043 -144.14007786 0.91106596 -143.39714789 0.91250378 C-133.18371334 0.9322537 -122.97027789 0.95009055 -112.75683594 0.96557617 C-112.038729 0.96666702 -111.32062206 0.96775787 -110.58075431 0.96888178 C-98.60136753 0.98691381 -86.62197798 1.00087285 -74.64258361 1.01274782 C-66.59690224 1.02100878 -58.55125697 1.03519038 -50.50559282 1.05372036 C-45.49907207 1.0643644 -40.49255166 1.0709477 -35.48602295 1.07652092 C-33.1636497 1.07999132 -30.84127831 1.08520528 -28.51891327 1.09228897 C-25.34887939 1.1017451 -22.17889622 1.1050174 -19.0088501 1.10679626 C-18.08967686 1.11107335 -17.17050362 1.11535043 -16.22347665 1.11975712 C-10.76246006 1.11491827 -5.39593053 0 0 0 Z " fill="#EBEF78" transform="translate(376,121)"/><path d="M0 0 C1.26392578 -0.01611328 2.52785156 -0.03222656 3.83007812 -0.04882812 C13.67828113 -0.05387073 22.81228818 1.18742939 32.1875 4.3125 C32.1875 4.9725 32.1875 5.6325 32.1875 6.3125 C34.4975 6.6425 36.8075 6.9725 39.1875 7.3125 C39.1875 7.9725 39.1875 8.6325 39.1875 9.3125 C39.97125 9.51875 40.755 9.725 41.5625 9.9375 C46.43485302 11.7856339 50.96676645 14.2428756 55.1875 17.3125 C55.1875 17.9725 55.1875 18.6325 55.1875 19.3125 C56.25484375 19.64701172 56.25484375 19.64701172 57.34375 19.98828125 C60.86341829 21.62724766 62.97030636 23.73319468 65.6875 26.5 C66.16872314 26.98960205 66.64994629 27.4792041 67.14575195 27.98364258 C70.58397358 31.53875088 73.51313655 35.16262569 76.1875 39.3125 C75.1975 40.3025 75.1975 40.3025 74.1875 41.3125 C71.40361025 39.60624499 70.33365794 38.83623261 69.4375 35.625 C69.355 34.861875 69.2725 34.09875 69.1875 33.3125 C68.1975 33.3125 67.2075 33.3125 66.1875 33.3125 C66.1875 31.9925 66.1875 30.6725 66.1875 29.3125 C65.65125 29.209375 65.115 29.10625 64.5625 29 C61.49846897 28.11304365 58.93988866 26.92803248 56.1875 25.3125 C55.74083984 24.32056641 55.74083984 24.32056641 55.28515625 23.30859375 C54.34754259 21.14247107 54.34754259 21.14247107 52.12890625 20.3359375 C51.34386719 20.12195313 50.55882812 19.90796875 49.75 19.6875 C46.66871185 18.82453627 44.91718097 18.13228731 42.1875 16.3125 C42.1875 14.9925 42.1875 13.6725 42.1875 12.3125 C41.011875 12.23 39.83625 12.1475 38.625 12.0625 C34.03280215 11.51405569 31.04500735 9.80380683 27.1875 7.3125 C27.1875 6.6525 27.1875 5.9925 27.1875 5.3125 C24.5475 4.9825 21.9075 4.6525 19.1875 4.3125 C19.1875 3.6525 19.1875 2.9925 19.1875 2.3125 C0.58082262 2.74281784 0.58082262 2.74281784 -17.8125 5.3125 C-18.98683594 5.54066406 -20.16117188 5.76882812 -21.37109375 6.00390625 C-28.34888574 7.23156488 -28.34888574 7.23156488 -33.8125 11.3125 C-35.606875 12.055 -35.606875 12.055 -37.4375 12.8125 C-38.55125 13.3075 -39.665 13.8025 -40.8125 14.3125 C-41.1425 15.3025 -41.4725 16.2925 -41.8125 17.3125 C-44.7825 17.6425 -47.7525 17.9725 -50.8125 18.3125 C-50.8125 18.9725 -50.8125 19.6325 -50.8125 20.3125 C-51.699375 20.704375 -52.58625 21.09625 -53.5 21.5 C-56.933818 23.16141941 -56.933818 23.16141941 -59.4375 26.0625 C-60.22125 26.805 -61.005 27.5475 -61.8125 28.3125 C-63.9609375 27.953125 -63.9609375 27.953125 -65.8125 27.3125 C-55.92177045 16.67582158 -43.90196974 8.36798251 -29.8125 4.3125 C-28.4925 4.3125 -27.1725 4.3125 -25.8125 4.3125 C-25.8125 3.6525 -25.8125 2.9925 -25.8125 2.3125 C-17.1742218 0.35845727 -8.83650211 -0.02232567 0 0 Z " fill="#E4E56D" transform="translate(249.8125,158.6875)"/><path d="M0 0 C0.827845 -0.00902847 1.65569 -0.01805695 2.50862122 -0.02735901 C4.24911916 -0.04180268 5.98967068 -0.05073353 7.73022461 -0.05444336 C10.39723499 -0.06641839 13.06198736 -0.11572229 15.72851562 -0.16601562 C17.42316583 -0.1754721 19.11783018 -0.18271084 20.8125 -0.1875 C21.60939743 -0.20703232 22.40629486 -0.22656464 23.2273407 -0.24668884 C25.47338867 -0.22827148 25.47338867 -0.22827148 29.20703125 0.37109375 C32.36079969 4.24683968 32.57803471 7.43115176 32.56347656 12.32592773 C32.56654312 13.34667641 32.56654312 13.34667641 32.56967163 14.38804626 C32.57267157 16.63136971 32.554209 18.87395158 32.53515625 21.1171875 C32.53209367 22.69075845 32.53022135 24.26433213 32.52947998 25.83790588 C32.52487985 29.13903165 32.51047823 32.43991312 32.48828125 35.7409668 C32.46020881 39.93315149 32.44908938 44.12514263 32.44459915 48.31741238 C32.43938765 52.35486143 32.42488067 56.39226402 32.41015625 60.4296875 C32.40827553 61.18205626 32.40639481 61.93442501 32.40445709 62.70959282 C32.37349313 72.3105363 32.02808886 81.79933111 31.20703125 91.37109375 C30.54703125 91.37109375 29.88703125 91.37109375 29.20703125 91.37109375 C29.20703125 62.66109375 29.20703125 33.95109375 29.20703125 4.37109375 C8.41703125 4.86609375 8.41703125 4.86609375 -12.79296875 5.37109375 C-14.77296875 9.00109375 -16.75296875 12.63109375 -18.79296875 16.37109375 C-19.12296875 15.05109375 -19.45296875 13.73109375 -19.79296875 12.37109375 C-19.13296875 12.37109375 -18.47296875 12.37109375 -17.79296875 12.37109375 C-17.66921875 11.27796875 -17.54546875 10.18484375 -17.41796875 9.05859375 C-16.79296875 5.37109375 -16.79296875 5.37109375 -14.79296875 2.37109375 C-9.89712221 0.1577757 -5.27030823 0.03573875 0 0 Z " fill="#EEF36E" transform="translate(345.79296875,283.62890625)"/><path d="M0 0 C0.99 0.495 0.99 0.495 2 1 C2.07347656 2.79244141 2.07347656 2.79244141 2.1484375 4.62109375 C2.29639459 7.89994705 2.46331502 11.17682631 2.66015625 14.453125 C2.705354 15.21012695 2.75055176 15.96712891 2.79711914 16.74707031 C3.14635879 20.6252694 3.95030905 24.26008312 5 28 C5.26683594 29.14855469 5.53367188 30.29710937 5.80859375 31.48046875 C7.5384553 38.7606882 9.73191817 45.12735241 13.73046875 51.53515625 C15.18486308 54.35891877 15.62203819 56.8624616 16 60 C16.66 60 17.32 60 18 60 C18.433125 60.928125 18.86625 61.85625 19.3125 62.8125 C20.72038627 65.47184073 21.76123556 67.08105905 24 69 C23.34 69.99 22.68 70.98 22 72 C16.85005923 66.48220632 13.42116556 60.70626203 10 54 C9.443125 52.94425781 9.443125 52.94425781 8.875 51.8671875 C7.87102029 49.9298204 6.92316187 47.97710501 6 46 C5.649375 45.25492187 5.29875 44.50984375 4.9375 43.7421875 C-1.18155546 29.74934744 -0.24913443 14.9538153 0 0 Z " fill="#E4E767" transform="translate(159,239)"/><path d="M0 0 C1.32 0.33 2.64 0.66 4 1 C3.34 1 2.68 1 2 1 C2 1.66 2 2.32 2 3 C1.19175781 3.26554687 0.38351562 3.53109375 -0.44921875 3.8046875 C-1.51785156 4.15789062 -2.58648437 4.51109375 -3.6875 4.875 C-4.74324219 5.22304688 -5.79898438 5.57109375 -6.88671875 5.9296875 C-9.9124701 6.91821638 -9.9124701 6.91821638 -12.39453125 8.0703125 C-20.21468372 10.86071173 -29.00398861 10.21644383 -37.1875 10.25 C-39.0447168 10.2809375 -39.0447168 10.2809375 -40.93945312 10.3125 C-51.77911841 10.35792552 -61.87672761 8.74169974 -71.8125 4.3125 C-73.30716797 3.65701172 -73.30716797 3.65701172 -74.83203125 2.98828125 C-75.54746094 2.66214844 -76.26289063 2.33601563 -77 2 C-74.38157144 0.69078572 -73.40149193 1.23009191 -70.59765625 1.9609375 C-69.71263428 2.18499268 -68.8276123 2.40904785 -67.91577148 2.63989258 C-66.97419189 2.88247803 -66.0326123 3.12506348 -65.0625 3.375 C-57.6956687 5.19641139 -50.6167658 6.81602015 -43 7 C-42.14792969 7.05027344 -41.29585937 7.10054688 -40.41796875 7.15234375 C-33.53601462 7.39297152 -26.86333579 6.57308706 -20.0625 5.625 C-19.15000488 5.49899414 -18.23750977 5.37298828 -17.29736328 5.24316406 C-12.9094571 4.5915994 -9.08170411 3.8071667 -5 2 C-2.1875 1.875 -2.1875 1.875 0 2 C0 1.34 0 0.68 0 0 Z " fill="#E7E872" transform="translate(287,331)"/><path d="M0 0 C0.66 0.33 1.32 0.66 2 1 C-0.24043694 5.04461718 -2.93949651 8.42947383 -6.0625 11.8125 C-6.54565674 12.33658447 -7.02881348 12.86066895 -7.52661133 13.40063477 C-13.76687377 20.03581187 -21.50004235 27.40763914 -30 31 C-30.99 30.67 -31.98 30.34 -33 30 C-33 28 -33 28 -32 26.4375 C-28.87565271 24.19187539 -25.80218292 24.31165434 -22 24 C-22 23.34 -22 22.68 -22 22 C-21.01 22 -20.02 22 -19 22 C-19 21.34 -19 20.68 -19 20 C-18.34 20 -17.68 20 -17 20 C-17 18.68 -17 17.36 -17 16 C-15.68 16 -14.36 16 -13 16 C-12.71125 15.360625 -12.4225 14.72125 -12.125 14.0625 C-11 12 -11 12 -9 11 C-8.27840576 9.35636866 -7.60648579 7.68949614 -7 6 C-6.34 6 -5.68 6 -5 6 C-4.67 5.01 -4.34 4.02 -4 3 C-1.9375 1.3125 -1.9375 1.3125 0 0 Z " fill="#E5E46E" transform="translate(324,300)"/><path d="M0 0 C0.80060349 0.02009628 1.60120697 0.04019257 2.42607117 0.06089783 C3.28553848 0.08793289 4.1450058 0.11496796 5.03051758 0.14282227 C5.91411453 0.16643326 6.79771149 0.19004425 7.70808411 0.21437073 C10.53057141 0.29095087 13.35278043 0.37499961 16.17504883 0.45922852 C18.08844666 0.51245485 20.00185809 0.56519522 21.9152832 0.61743164 C26.60621467 0.74655841 31.29691021 0.88238385 35.98754883 1.02172852 C36.48254883 2.01172852 36.48254883 2.01172852 36.98754883 3.02172852 C16.19754883 3.51672852 16.19754883 3.51672852 -5.01245117 4.02172852 C-6.99245117 7.65172852 -8.97245117 11.28172852 -11.01245117 15.02172852 C-11.34245117 13.70172852 -11.67245117 12.38172852 -12.01245117 11.02172852 C-11.35245117 11.02172852 -10.69245117 11.02172852 -10.01245117 11.02172852 C-9.88870117 9.92860352 -9.76495117 8.83547852 -9.63745117 7.70922852 C-9.01245117 4.02172852 -9.01245117 4.02172852 -7.01245117 1.02172852 C-4.25646366 0.10306601 -2.81617466 -0.07995449 0 0 Z " fill="#C5C860" transform="translate(338.012451171875,284.978271484375)"/><path d="M0 0 C0.33 0.66 0.66 1.32 1 2 C0.109375 4.05859375 0.109375 4.05859375 -1.25 6.4375 C-1.68828125 7.21996094 -2.1265625 8.00242188 -2.578125 8.80859375 C-3.89754445 10.84209461 -5.288038 12.30732771 -7 14 C-7.309375 14.825 -7.61875 15.65 -7.9375 16.5 C-9 19 -9 19 -11.0625 20.5 C-13.5899958 22.45677094 -13.51556483 23.93191062 -14 27 C-14.66 27.33 -15.32 27.66 -16 28 C-16.33 28.99 -16.66 29.98 -17 31 C-17.66 30.67 -18.32 30.34 -19 30 C-14.90861931 18.28492857 -8.5180096 8.96050361 0 0 Z " fill="#D5D56D" transform="translate(183,187)"/><path d="M0 0 C6.95660771 0.57021375 13.31427305 2.01302694 20 4 C20 4.66 20 5.32 20 6 C20.928125 6.226875 21.85625 6.45375 22.8125 6.6875 C26.54482412 8.22433934 27.30400355 9.42948116 29 13 C29.33 13.66 29.66 14.32 30 15 C27.69 14.67 25.38 14.34 23 14 C23 12.35 23 10.7 23 9 C21.824375 8.9175 20.64875 8.835 19.4375 8.75 C14.84530215 8.20155569 11.85750735 6.49130683 8 4 C8 3.34 8 2.68 8 2 C5.36 1.67 2.72 1.34 0 1 C0 0.67 0 0.34 0 0 Z " fill="#F1F468" transform="translate(269,162)"/><path d="M0 0 C0.99 0.495 0.99 0.495 2 1 C2.07347656 2.61841797 2.07347656 2.61841797 2.1484375 4.26953125 C2.69916312 15.56640182 3.71694608 26.76393557 5 38 C-2.27040239 27.09439642 -0.30910655 12.47205316 0 0 Z " fill="#F3F578" transform="translate(159,239)"/><path d="M0 0 C0.66 0.33 1.32 0.66 2 1 C2 2.32 2 3.64 2 5 C3.03125 4.896875 4.0625 4.79375 5.125 4.6875 C10.90956361 5.15399707 12.97087486 7.97087486 17 12 C14.5332355 12.88336837 13.36140628 13.1312406 10.859375 12.22265625 C10.16328125 11.83980469 9.4671875 11.45695312 8.75 11.0625 C8.04359375 10.68222656 7.3371875 10.30195313 6.609375 9.91015625 C6.07828125 9.60980469 5.5471875 9.30945313 5 9 C5 8.34 5 7.68 5 7 C4.21625 6.731875 3.4325 6.46375 2.625 6.1875 C0 5 0 5 -2 2 C-1.34 2 -0.68 2 0 2 C0 1.34 0 0.68 0 0 Z " fill="#E1E26D" transform="translate(195,319)"/><path d="M0 0 C7.71164651 1.47966129 15.35656288 3.20295366 23 5 C23 5.33 23 5.66 23 6 C25.31 6.33 27.62 6.66 30 7 C29.67 7.66 29.34 8.32 29 9 C18.41593928 8.06899466 9.71797293 5.24351484 0 1 C0 0.67 0 0.34 0 0 Z " fill="#CECF6A" transform="translate(210,332)"/><path d="M0 0 C0.66 1.32 1.32 2.64 2 4 C0.824375 4.12375 0.824375 4.12375 -0.375 4.25 C-3.12104207 4.70280998 -3.12104207 4.70280998 -4.0625 6.875 C-4.371875 7.57625 -4.68125 8.2775 -5 9 C-8.00324312 11.75918724 -10.21806516 12.42224113 -14.25 12.6875 C-15.14203125 12.75324219 -16.0340625 12.81898438 -16.953125 12.88671875 C-17.62859375 12.92410156 -18.3040625 12.96148437 -19 13 C-17 11 -17 11 -14.4375 9.75 C-9.2910969 7.13001297 -4.10241983 4.10241983 0 0 Z " fill="#343314" transform="translate(308,320)"/><path d="M0 0 C0.66 0.33 1.32 0.66 2 1 C1.823479 1.54938232 1.64695801 2.09876465 1.46508789 2.66479492 C0.66141803 5.1714732 -0.13807522 7.67946482 -0.9375 10.1875 C-1.21529297 11.05181641 -1.49308594 11.91613281 -1.77929688 12.80664062 C-2.04677734 13.64775391 -2.31425781 14.48886719 -2.58984375 15.35546875 C-2.83597412 16.12528076 -3.08210449 16.89509277 -3.33569336 17.68823242 C-4.031111 20.10826537 -4.53879898 22.52558955 -5 25 C-5.33 25 -5.66 25 -6 25 C-6.44032071 17.48193151 -5.28612778 11.15775723 -3 4 C-2.34 4 -1.68 4 -1 4 C-0.67 2.68 -0.34 1.36 0 0 Z " fill="#F3F56F" transform="translate(167,214)"/><path d="M0 0 C0.66 0 1.32 0 2 0 C2 0.66 2 1.32 2 2 C2.99 2.33 3.98 2.66 5 3 C5.6875 5.0625 5.6875 5.0625 6 7 C6.66 7 7.32 7 8 7 C8.433125 7.928125 8.86625 8.85625 9.3125 9.8125 C10.72038627 12.47184073 11.76123556 14.08105905 14 16 C13.34 16.99 12.68 17.98 12 19 C6.54090926 13.28095256 3.31086837 7.1500668 0 0 Z " fill="#E9EB75" transform="translate(169,292)"/><path d="M0 0 C5.24972347 4.10037573 9.20962911 8.52964787 13 14 C12.34 14.66 11.68 15.32 11 16 C8.21611025 14.29374499 7.14615794 13.52373261 6.25 10.3125 C6.1675 9.549375 6.085 8.78625 6 8 C5.01 8 4.02 8 3 8 C3 6.68 3 5.36 3 4 C1.68 3.67 0.36 3.34 -1 3 C-0.67 2.01 -0.34 1.02 0 0 Z " fill="#DBDC6C" transform="translate(313,184)"/><path d="M0 0 C2.31 0.33 4.62 0.66 7 1 C7 1.66 7 2.32 7 3 C8.32 3.33 9.64 3.66 11 4 C11.33 5.32 11.66 6.64 12 8 C12.66 8 13.32 8 14 8 C13.67 8.66 13.34 9.32 13 10 C9.90370066 8.24264092 7.5010319 6.5010319 5 4 C3.33675599 2.99431758 1.67063747 1.99335201 0 1 C0 0.67 0 0.34 0 0 Z " fill="#333113" transform="translate(297,171)"/><path d="M0 0 C6.95660771 0.57021375 13.31427305 2.01302694 20 4 C20 4.66 20 5.32 20 6 C20.66 6.33 21.32 6.66 22 7 C16.89416653 6.448018 12.438884 4.77216517 7.68359375 2.9375 C5.12682361 2.04430519 2.66467865 1.46258436 0 1 C0 0.67 0 0.34 0 0 Z " fill="#E5E779" transform="translate(269,162)"/><path d="M0 0 C0 3 0 3 0 3 Z M-6 2 C-3 2 -3 2 -1 3 C-5.43076923 8.78461538 -5.43076923 8.78461538 -8.3125 9.875 C-8.869375 9.91625 -9.42625 9.9575 -10 10 C-7.125 3.125 -7.125 3.125 -6 2 Z " fill="#262211" transform="translate(334,295)"/><path d="M0 0 C0.8971875 0.309375 0.8971875 0.309375 1.8125 0.625 C1.8125 1.285 1.8125 1.945 1.8125 2.625 C-0.29001861 3.29684618 -2.39457763 3.96230968 -4.5 4.625 C-6.25763672 5.181875 -6.25763672 5.181875 -8.05078125 5.75 C-11.1875 6.625 -11.1875 6.625 -14.1875 6.625 C-11.59268268 2.73277401 -9.60329095 2.78705025 -5.1875 1.625 C-2.1875 -0.375 -2.1875 -0.375 0 0 Z " fill="#2E2B0F" transform="translate(222.1875,160.375)"/><path d="M0 0 C0 0.99 0 1.98 0 3 C-2.8125 5.25 -2.8125 5.25 -6 7 C-6.99 6.67 -7.98 6.34 -9 6 C-9 4 -9 4 -7.75 2.4375 C-5.28409638 0.41193631 -3.14665081 0 0 0 Z " fill="#E7EB6F" transform="translate(300,324)"/><path d="M0 0 C2 3 2 3 2 5 C3.65 5.33 5.3 5.66 7 6 C7.33 7.98 7.66 9.96 8 12 C0.51708428 5.84965831 0.51708428 5.84965831 -2 2 C-1.34 2 -0.68 2 0 2 C0 1.34 0 0.68 0 0 Z " fill="#D9D96B" transform="translate(184,309)"/><path d="M0 0 C0.99 0.33 1.98 0.66 3 1 C0.69 5.29 -1.62 9.58 -4 14 C-4.33 12.68 -4.66 11.36 -5 10 C-4.34 10 -3.68 10 -3 10 C-2.87625 8.906875 -2.7525 7.81375 -2.625 6.6875 C-2 3 -2 3 0 0 Z " fill="#E7E96A" transform="translate(331,286)"/><path d="M0 0 C2.07036069 1.3586742 4.05284343 2.78259126 6 4.3125 C3.5332355 5.19586837 2.36140628 5.4437406 -0.140625 4.53515625 C-0.83671875 4.15230469 -1.5328125 3.76945312 -2.25 3.375 C-2.95640625 2.99472656 -3.6628125 2.61445313 -4.390625 2.22265625 C-4.92171875 1.92230469 -5.4528125 1.62195313 -6 1.3125 C-2.25 -0.7734375 -2.25 -0.7734375 0 0 Z " fill="#D2D666" transform="translate(206,326.6875)"/><path d="M0 0 C3.5875213 1.33250791 6.8364623 2.830717 10 5 C10 5.66 10 6.32 10 7 C6.4257023 6.67506385 4.44287547 6.36129314 1.625 4.0625 C0 2 0 2 0 0 Z " fill="#E0E170" transform="translate(295,171)"/><path d="M0 0 C-1.75864246 2.1793144 -2.69396 2.93686419 -5.48046875 3.51171875 C-6.82044922 3.59873047 -6.82044922 3.59873047 -8.1875 3.6875 C-9.08855469 3.75324219 -9.98960937 3.81898438 -10.91796875 3.88671875 C-11.60503906 3.92410156 -12.29210937 3.96148437 -13 4 C-10.96180154 1.96180154 -9.70582202 1.32158941 -7.0625 0.3125 C-6.37285156 0.04050781 -5.68320312 -0.23148437 -4.97265625 -0.51171875 C-3 -1 -3 -1 0 0 Z " fill="#25230E" transform="translate(302,329)"/><path d="M0 0 C3.67230705 3.07999946 4.56802365 5.2482602 5 10 C2 9 2 9 0 6 C-0.125 2.8125 -0.125 2.8125 0 0 Z " fill="#C3C45C" transform="translate(329,204)"/><path d="M0 0 C0.33 1.32 0.66 2.64 1 4 C-1.3125 6.0625 -1.3125 6.0625 -4 8 C-4.99 7.67 -5.98 7.34 -7 7 C-4.69 4.69 -2.38 2.38 0 0 Z " fill="#272309" transform="translate(318,311)"/><path d="M0 0 C0.66 0.33 1.32 0.66 2 1 C1.071875 2.1446875 1.071875 2.1446875 0.125 3.3125 C-2.05597052 5.99625809 -2.05597052 5.99625809 -4 9 C-5.32 8.67 -6.64 8.34 -8 8 C-5.36 5.36 -2.72 2.72 0 0 Z " fill="#D4D56B" transform="translate(192,178)"/><path d="M0 0 C0.99 0 1.98 0 3 0 C5.1875 3 5.1875 3 7 6 C4.69 5.67 2.38 5.34 0 5 C0 3.35 0 1.7 0 0 Z " fill="#F6F961" transform="translate(292,171)"/><path d="M0 0 C0 0.33 0 0.66 0 1 C-1.65 1 -3.3 1 -5 1 C-5 1.66 -5 2.32 -5 3 C-6.65 3 -8.3 3 -10 3 C-10 2.34 -10 1.68 -10 1 C-6.21812119 -0.83691257 -4.05431692 -1.15837626 0 0 Z " fill="#F8F969" transform="translate(292,330)"/><path d="M0 0 C0.33 0 0.66 0 1 0 C1 2.31 1 4.62 1 7 C0.01 7.495 0.01 7.495 -1 8 C-1.33 8.99 -1.66 9.98 -2 11 C-2.66 10.67 -3.32 10.34 -4 10 C-2.68 6.7 -1.36 3.4 0 0 Z " fill="#BDBD65" transform="translate(168,207)"/><path d="M0 0 C0.33 1.32 0.66 2.64 1 4 C-0.65 5.32 -2.3 6.64 -4 8 C-4.33 7.01 -4.66 6.02 -5 5 C-3.625 3.5 -3.625 3.5 -2 2 C-1.34 2 -0.68 2 0 2 C0 1.34 0 0.68 0 0 Z " fill="#E7ED6E" transform="translate(174,201)"/><path d="M0 0 C3.37503669 1.1858237 5.64722731 2.27573689 8 5 C7.01 6.485 7.01 6.485 6 8 C4.02 5.36 2.04 2.72 0 0 Z " fill="#D4D36E" transform="translate(175,303)"/><path d="M0 0 C0.99 0.33 1.98 0.66 3 1 C0.03 4.96 0.03 4.96 -3 9 C-3.33 8.01 -3.66 7.02 -4 6 C-3.34 6 -2.68 6 -2 6 C-1.855625 5.195625 -1.71125 4.39125 -1.5625 3.5625 C-1 1 -1 1 0 0 Z " fill="#211F09" transform="translate(176,191)"/><path d="M0 0 C0 0.99 0 1.98 0 3 C-5.625 6 -5.625 6 -9 6 C-7.8803014 4.99406757 -6.7540588 3.9954151 -5.625 3 C-4.68527344 2.1646875 -4.68527344 2.1646875 -3.7265625 1.3125 C-2 0 -2 0 0 0 Z " fill="#F6F874" transform="translate(199,176)"/><path d="M0 0 C0 0.66 0 1.32 0 2 C-0.66 2 -1.32 2 -2 2 C-2 2.99 -2 3.98 -2 5 C-4.31 5 -6.62 5 -9 5 C-6.45523312 2.20075644 -3.92372883 0 0 0 Z " fill="#C7CA67" transform="translate(208,169)"/><path d="M0 0 C0.33 0.66 0.66 1.32 1 2 C1.66 2 2.32 2 3 2 C3 3.98 3 5.96 3 8 C2.34 8 1.68 8 1 8 C-0.35439668 5.29120665 -0.06501451 2.99066732 0 0 Z " fill="#E1E66C" transform="translate(326,200)"/><path d="M0 0 C2.0625 0.4375 2.0625 0.4375 4 1 C1.03 3.475 1.03 3.475 -2 6 C-1.125 1.125 -1.125 1.125 0 0 Z " fill="#262308" transform="translate(182,184)"/><path d="M0 0 C0.66 0 1.32 0 2 0 C0.9024777 2.99324263 0.32317108 3.84610901 -2.625 5.25 C-3.40875 5.4975 -4.1925 5.745 -5 6 C-5 5.34 -5 4.68 -5 4 C-4.34 4 -3.68 4 -3 4 C-3 3.34 -3 2.68 -3 2 C-2.01 2 -1.02 2 0 2 C0 1.34 0 0.68 0 0 Z " fill="#D6D671" transform="translate(305,320)"/><path d="M0 0 C0.66 0.66 1.32 1.32 2 2 C1.625 4.125 1.625 4.125 1 6 C-0.32 5.34 -1.64 4.68 -3 4 C-3 3.34 -3 2.68 -3 2 C-2.01 1.34 -1.02 0.68 0 0 Z " fill="#030210" transform="translate(338,205)"/></svg>
